# xmcd
#
# Track frame offsets: 
#        150
#        24597
#        46651
#        62447
#        83453
#        101506
#        113544
#        132443
#        147093
#        165033
#
# Disc length: 2517 seconds
#
# Revision: 0
# Processed by: cddbd v1.5.2PL0 Copyright (c) Steve Scherf et al.
# Submitted via: ExactAudioCopyFreeDBPlugin 1.0
#
DISCID=6809d30a
DTITLE=American Aquarium - Things Change
DYEAR=2018
DGENRE=Americana
TTITLE0=The World Is on Fire
TTITLE1=Crooked and Straight
TTITLE2=Tough Folks
TTITLE3=When We Were Younger Men
TTITLE4=One Day at a Time
TTITLE5=Things Change
TTITLE6=Work Conquers All
TTITLE7=I Gave Up the Drinking (Before She Gave Up on Me)
TTITLE8=Shadows of You
TTITLE9='Till the Final Curtain Falls
EXTD=
EXTT0=
EXTT1=
EXTT2=
EXTT3=
EXTT4=
EXTT5=
EXTT6=
EXTT7=
EXTT8=
EXTT9=
PLAYORDER=
